<svg width="100" height="100" viewBox="0 0 100 100" fill="none" xmlns="http://www.w3.org/2000/svg">
<path d="M16.6663 50.0002C16.6663 58.8407 20.1782 67.3192 26.4295 73.5704C32.6807 79.8216 41.1591 83.3335 49.9997 83.3335M16.6663 50.0002C16.6663 41.1596 20.1782 32.6812 26.4295 26.4299C32.6807 20.1787 41.1591 16.6668 49.9997 16.6668M16.6663 50.0002H8.33301M49.9997 83.3335C58.8402 83.3335 67.3187 79.8216 73.5699 73.5704C79.8211 67.3192 83.333 58.8407 83.333 50.0002M49.9997 83.3335V91.6668M83.333 50.0002C83.333 41.1596 79.8211 32.6812 73.5699 26.4299C67.3187 20.1787 58.8402 16.6668 49.9997 16.6668M83.333 50.0002H91.6663M49.9997 16.6668V8.3335M37.4997 50.0002C37.4997 53.3154 38.8166 56.4948 41.1608 58.839C43.505 61.1832 46.6845 62.5002 49.9997 62.5002C53.3149 62.5002 56.4943 61.1832 58.8385 58.839C61.1827 56.4948 62.4997 53.3154 62.4997 50.0002C62.4997 46.685 61.1827 43.5055 58.8385 41.1613C56.4943 38.8171 53.3149 37.5002 49.9997 37.5002C46.6845 37.5002 43.505 38.8171 41.1608 41.1613C38.8166 43.5055 37.4997 46.685 37.4997 50.0002Z" stroke="white" stroke-width="2" stroke-linecap="round" stroke-linejoin="round"/>
</svg>
