<svg width="100" height="100" viewBox="0 0 100 100" fill="none" xmlns="http://www.w3.org/2000/svg">
<path d="M58.333 33.3333H47.9163C46.2587 33.3333 44.669 33.9918 43.4969 35.1639C42.3248 36.336 41.6663 37.9257 41.6663 39.5833C41.6663 41.2409 42.3248 42.8306 43.4969 44.0028C44.669 45.1749 46.2587 45.8333 47.9163 45.8333H52.083C53.7406 45.8333 55.3303 46.4918 56.5024 47.6639C57.6745 48.836 58.333 50.4257 58.333 52.0833C58.333 53.7409 57.6745 55.3306 56.5024 56.5027C55.3303 57.6749 53.7406 58.3333 52.083 58.3333H41.6663M49.9997 58.3333V64.5833M49.9997 27.0833V33.3333M20.833 87.5V20.8333C20.833 18.6232 21.711 16.5036 23.2738 14.9408C24.8366 13.378 26.9562 12.5 29.1663 12.5H70.833C73.0431 12.5 75.1628 13.378 76.7256 14.9408C78.2884 16.5036 79.1663 18.6232 79.1663 20.8333V87.5L66.6663 79.1667L58.333 87.5L49.9997 79.1667L41.6663 87.5L33.333 79.1667L20.833 87.5Z" stroke="white" stroke-width="2" stroke-linecap="round" stroke-linejoin="round"/>
</svg>
