<svg width="52" height="53" viewBox="0 0 52 53" fill="none" xmlns="http://www.w3.org/2000/svg">
<path d="M24.7549 17.759L7.54522 36.1553C7.25793 36.4622 7.09766 36.87 7.09766 37.2941C7.09766 37.7182 7.25793 38.126 7.54522 38.4329L7.56467 38.4527C7.70394 38.6021 7.87159 38.721 8.0574 38.8022C8.24322 38.8835 8.44332 38.9254 8.64554 38.9254C8.84775 38.9254 9.04785 38.8835 9.23367 38.8022C9.41948 38.721 9.58713 38.6021 9.7264 38.4527L25.9313 21.1293L42.1298 38.4527C42.2691 38.6021 42.4367 38.721 42.6225 38.8022C42.8083 38.8835 43.0084 38.9254 43.2107 38.9254C43.4129 38.9254 43.613 38.8835 43.7988 38.8022C43.9846 38.721 44.1522 38.6021 44.2915 38.4527L44.311 38.4329C44.5983 38.126 44.7585 37.7182 44.7585 37.2941C44.7585 36.87 44.5983 36.4622 44.311 36.1553L27.1013 17.759C26.95 17.5973 26.768 17.4685 26.5663 17.3805C26.3646 17.2924 26.1475 17.2471 25.9281 17.2471C25.7087 17.2471 25.4916 17.2924 25.2899 17.3805C25.0882 17.4685 24.9062 17.5973 24.7549 17.759Z" fill="#4F614B"/>
</svg>
