<svg width="67" height="229" viewBox="0 0 67 229" fill="none" xmlns="http://www.w3.org/2000/svg">
<path d="M20 115.399C20 119.113 21.4223 122.673 23.9541 125.299C26.4858 127.924 29.9196 129.399 33.5 129.399C37.0804 129.399 40.5142 127.924 43.0459 125.299C45.5777 122.673 47 119.113 47 115.399C47 111.686 45.5777 108.126 43.0459 105.5C40.5142 102.874 37.0804 101.399 33.5 101.399C29.9196 101.399 26.4858 102.874 23.9541 105.5C21.4223 108.126 20 111.686 20 115.399Z" fill="black"/>
<path d="M20.0003 182.6C20.0003 186.314 21.4226 189.874 23.9543 192.5C26.4861 195.126 29.9199 196.6 33.5003 196.6C37.0807 196.6 40.5145 195.126 43.0462 192.5C45.578 189.874 47.0003 186.314 47.0003 182.6C47.0003 178.887 45.578 175.326 43.0462 172.701C40.5145 170.075 37.0807 168.6 33.5003 168.6C29.9199 168.6 26.4861 170.075 23.9543 172.701C21.4226 175.326 20.0003 178.887 20.0003 182.6Z" fill="black"/>
<path d="M20.0003 48C20.0003 51.713 21.4226 55.274 23.9543 57.8995C26.4861 60.525 29.9199 62 33.5003 62C37.0807 62 40.5145 60.525 43.0462 57.8995C45.578 55.274 47.0003 51.713 47.0003 48C47.0003 44.287 45.578 40.726 43.0462 38.1005C40.5145 35.475 37.0807 34 33.5003 34C29.9199 34 26.4861 35.475 23.9543 38.1005C21.4226 40.726 20.0003 44.287 20.0003 48Z" fill="black"/>
<path d="M20.0003 182.6C20.0003 186.314 21.4226 189.874 23.9543 192.5C26.4861 195.126 29.9199 196.6 33.5003 196.6C37.0807 196.6 40.5145 195.126 43.0462 192.5C45.578 189.874 47.0003 186.314 47.0003 182.6C47.0003 178.887 45.578 175.326 43.0462 172.701C40.5145 170.075 37.0807 168.6 33.5003 168.6C29.9199 168.6 26.4861 170.075 23.9543 172.701C21.4226 175.326 20.0003 178.887 20.0003 182.6Z" fill="black"/>
<path d="M20 115.399C20 119.113 21.4223 122.673 23.9541 125.299C26.4858 127.924 29.9196 129.399 33.5 129.399C37.0804 129.399 40.5142 127.924 43.0459 125.299C45.5777 122.673 47 119.113 47 115.399C47 111.686 45.5777 108.126 43.0459 105.5C40.5142 102.874 37.0804 101.399 33.5 101.399C29.9196 101.399 26.4858 102.874 23.9541 105.5C21.4223 108.126 20 111.686 20 115.399Z" stroke="black" stroke-width="2" stroke-linecap="round" stroke-linejoin="round"/>
<path d="M20.0003 182.6C20.0003 186.314 21.4226 189.874 23.9543 192.5C26.4861 195.126 29.9199 196.6 33.5003 196.6C37.0807 196.6 40.5145 195.126 43.0462 192.5C45.578 189.874 47.0003 186.314 47.0003 182.6C47.0003 178.887 45.578 175.326 43.0462 172.701C40.5145 170.075 37.0807 168.6 33.5003 168.6C29.9199 168.6 26.4861 170.075 23.9543 172.701C21.4226 175.326 20.0003 178.887 20.0003 182.6Z" stroke="black" stroke-width="2" stroke-linecap="round" stroke-linejoin="round"/>
<path d="M20.0003 48C20.0003 51.713 21.4226 55.274 23.9543 57.8995C26.4861 60.525 29.9199 62 33.5003 62C37.0807 62 40.5145 60.525 43.0462 57.8995C45.578 55.274 47.0003 51.713 47.0003 48C47.0003 44.287 45.578 40.726 43.0462 38.1005C40.5145 35.475 37.0807 34 33.5003 34C29.9199 34 26.4861 35.475 23.9543 38.1005C21.4226 40.726 20.0003 44.287 20.0003 48Z" stroke="black" stroke-width="2" stroke-linecap="round" stroke-linejoin="round"/>
<path d="M20.0003 182.6C20.0003 186.314 21.4226 189.874 23.9543 192.5C26.4861 195.126 29.9199 196.6 33.5003 196.6C37.0807 196.6 40.5145 195.126 43.0462 192.5C45.578 189.874 47.0003 186.314 47.0003 182.6C47.0003 178.887 45.578 175.326 43.0462 172.701C40.5145 170.075 37.0807 168.6 33.5003 168.6C29.9199 168.6 26.4861 170.075 23.9543 172.701C21.4226 175.326 20.0003 178.887 20.0003 182.6Z" stroke="black" stroke-width="2" stroke-linecap="round" stroke-linejoin="round"/>
</svg>
