<svg width="198" height="198" viewBox="0 0 198 198" fill="none" xmlns="http://www.w3.org/2000/svg">
<path d="M73.9399 57.5088H49.2933C44.9356 57.5088 40.7563 59.2399 37.6748 62.3213C34.5934 65.4027 32.8623 69.582 32.8623 73.9398V147.879C32.8623 152.237 34.5934 156.417 37.6748 159.498C40.7563 162.579 44.9356 164.311 49.2933 164.311H123.233C127.591 164.311 131.77 162.579 134.851 159.498C137.933 156.417 139.664 152.237 139.664 147.879V123.233" stroke="black" stroke-width="16.431" stroke-linecap="round" stroke-linejoin="round"/>
<path d="M73.9395 123.235H98.586L168.418 53.4029C171.686 50.1345 173.522 45.7017 173.522 41.0796C173.522 36.4575 171.686 32.0247 168.418 28.7563C165.15 25.488 160.717 23.6519 156.095 23.6519C151.473 23.6519 147.04 25.488 143.771 28.7563L73.9395 98.5882V123.235Z" stroke="black" stroke-width="16.431" stroke-linecap="round" stroke-linejoin="round"/>
<path d="M131.448 41.0776L156.095 65.7242" stroke="black" stroke-width="16.431" stroke-linecap="round" stroke-linejoin="round"/>
</svg>
