<svg width="60" height="60" viewBox="0 0 60 60" fill="white" xmlns="http://www.w3.org/2000/svg">
<path d="M32.5 7.5C34.413 7.49989 36.2538 8.23081 37.6457 9.54321C39.0375 10.8556 39.8753 12.6503 39.9875 14.56L40 15V25H45C46.8378 24.9997 48.6118 25.6742 49.9851 26.8955C51.3585 28.1167 52.2356 29.7997 52.45 31.625L52.4875 32.06L52.5 32.5L52.45 32.99L49.935 45.57C48.9825 49.635 46.18 52.56 42.91 52.52L42.5 52.5H22.5C21.8877 52.4999 21.2967 52.2751 20.8391 51.8682C20.3815 51.4613 20.0891 50.9006 20.0175 50.2925L20 50L20.0025 26.16C20.003 25.7216 20.1187 25.291 20.3381 24.9115C20.5575 24.5319 20.8728 24.2167 21.2525 23.9975C22.3186 23.3818 23.2165 22.513 23.8671 21.4678C24.5176 20.4227 24.9007 19.2334 24.9825 18.005L25 17.5V15C25 13.0109 25.7902 11.1032 27.1967 9.6967C28.6032 8.29018 30.5109 7.5 32.5 7.5Z" fill="black"/>
<path d="M12.5 25C13.1123 25.0001 13.7033 25.2249 14.1609 25.6318C14.6185 26.0387 14.9109 26.5994 14.9825 27.2075L15 27.5V50C14.9999 50.6123 14.7751 51.2033 14.3682 51.6609C13.9613 52.1185 13.4006 52.4109 12.7925 52.4825L12.5 52.5H10C8.73856 52.5004 7.52358 52.024 6.59863 51.1663C5.67368 50.3085 5.10711 49.1329 5.0125 47.875L5 47.5V30C4.9996 28.7386 5.47602 27.5236 6.33374 26.5986C7.19147 25.6737 8.36711 25.1071 9.625 25.0125L10 25H12.5Z" fill="black"/>
<path d="M32.5 7.5C34.413 7.49989 36.2538 8.23081 37.6457 9.54321C39.0375 10.8556 39.8753 12.6503 39.9875 14.56L40 15V25H45C46.8378 24.9997 48.6118 25.6742 49.9851 26.8955C51.3585 28.1167 52.2356 29.7997 52.45 31.625L52.4875 32.06L52.5 32.5L52.45 32.99L49.935 45.57C48.9825 49.635 46.18 52.56 42.91 52.52L42.5 52.5H22.5C21.8877 52.4999 21.2967 52.2751 20.8391 51.8682C20.3815 51.4613 20.0891 50.9006 20.0175 50.2925L20 50L20.0025 26.16C20.003 25.7216 20.1187 25.291 20.3381 24.9115C20.5575 24.5319 20.8728 24.2167 21.2525 23.9975C22.3186 23.3818 23.2165 22.513 23.8671 21.4678C24.5176 20.4227 24.9007 19.2334 24.9825 18.005L25 17.5V15C25 13.0109 25.7902 11.1032 27.1967 9.6967C28.6032 8.29018 30.5109 7.5 32.5 7.5Z" />
<path d="M12.5 25C13.1123 25.0001 13.7033 25.2249 14.1609 25.6318C14.6185 26.0387 14.9109 26.5994 14.9825 27.2075L15 27.5V50C14.9999 50.6123 14.7751 51.2033 14.3682 51.6609C13.9613 52.1185 13.4006 52.4109 12.7925 52.4825L12.5 52.5H10C8.73856 52.5004 7.52358 52.024 6.59863 51.1663C5.67368 50.3085 5.10711 49.1329 5.0125 47.875L5 47.5V30C4.9996 28.7386 5.47602 27.5236 6.33374 26.5986C7.19147 25.6737 8.36711 25.1071 9.625 25.0125L10 25H12.5Z" />
</svg>
