<svg width="198" height="198" viewBox="0 0 198 198" fill="none" xmlns="http://www.w3.org/2000/svg">
<path d="M173.078 115.465L148.431 90.8189H90.9225C88.7437 90.8189 86.654 89.9533 85.1133 88.4126C83.5726 86.8719 82.707 84.7822 82.707 82.6033V33.3102C82.707 31.1314 83.5726 29.0417 85.1133 27.501C86.654 25.9603 88.7437 25.0947 90.9225 25.0947H164.862C167.041 25.0947 169.131 25.9603 170.671 27.501C172.212 29.0417 173.078 31.1314 173.078 33.3102V115.465Z" stroke="black" stroke-width="16.431" stroke-linecap="round" stroke-linejoin="round"/>
<path d="M115.569 123.681V140.112C115.569 142.291 114.703 144.381 113.163 145.921C111.622 147.462 109.532 148.328 107.353 148.328H49.8448L25.1982 172.974V90.819C25.1982 88.6401 26.0638 86.5505 27.6045 85.0098C29.1452 83.4691 31.2349 82.6035 33.4138 82.6035H49.8448" stroke="black" stroke-width="16.431" stroke-linecap="round" stroke-linejoin="round"/>
</svg>
