<svg width="365" height="365" viewBox="0 0 365 365" fill="none" xmlns="http://www.w3.org/2000/svg">
<path d="M182.352 152.014C162.332 152.014 152.276 158.399 137.898 181.195L134.198 187.231L128.207 197.666C127.49 198.948 126.778 200.232 126.068 201.518C122.428 208.101 117.408 212.939 108.794 218.839L100.452 224.374C86.1953 233.884 78.7333 241.331 74.5625 254.025C72.6818 259.152 71.5898 266.963 71.6353 273.439C71.6353 299.025 89.805 318.848 114.102 318.848L117.772 318.757C119.577 318.666 121.321 318.499 123.141 318.241L126.903 317.589L128.905 317.164L133.318 316.057L135.775 315.374L144.42 312.796L155.992 309.111L162.893 307.048C170.931 304.773 177.15 303.681 182.352 303.681C187.569 303.681 193.772 304.788 201.811 307.048L208.712 309.111L220.299 312.781L228.929 315.374L233.661 316.648C235.132 317.012 236.497 317.331 237.801 317.589L241.563 318.241C243.383 318.499 245.127 318.666 246.932 318.757L250.602 318.848C274.899 318.848 293.069 299.025 293.069 273.348C293.069 266.871 291.961 259.106 289.929 253.54C286.35 242.559 279.661 234.991 267.482 225.785L263.585 222.903L255.577 217.14C245.84 210.012 240.364 204.612 236.573 197.757L232.478 190.401L228.656 183.849C213.322 158.126 204.116 152.014 182.352 152.014Z" fill="#4F614B"/>
<path d="M300.348 106.514H299.893C281.405 106.818 264.251 122.682 255.788 144.492C245.323 171.412 250.51 200.912 272.092 210.209C275.975 211.862 280.085 212.681 284.241 212.681C302.911 212.681 320.338 196.71 328.876 174.704C339.281 147.798 334.033 118.284 312.557 109.002C308.702 107.359 304.539 106.513 300.348 106.514Z" fill="#4F614B"/>
<path d="M137.231 45.8477C135.533 45.8477 134.426 45.878 133.136 46.0752L131.726 46.3178C108.491 49.4422 95.3714 76.4843 99.7545 104.785C103.88 130.948 121.928 152.014 144.041 152.014L146.877 151.938C147.304 151.902 147.729 151.852 148.151 151.787L149.547 151.544C172.797 148.42 185.901 121.378 181.518 93.0767C177.423 66.8838 159.375 45.8477 137.231 45.8477Z" fill="#4F614B"/>
<path d="M227.416 45.8477C205.287 45.8477 187.269 66.8991 183.19 93.0616C178.791 121.378 191.895 148.42 216.162 151.711C217.724 151.908 219.195 152.014 220.651 152.014C241.733 152.014 259.22 132.829 264.286 108.289L264.908 104.801C269.306 76.4844 256.202 49.4422 231.935 46.1511C230.438 45.9455 228.927 45.8442 227.416 45.8477Z" fill="#4F614B"/>
<path d="M64.3007 106.514C60.1451 106.514 56.0501 107.333 52.2129 108.956C30.5852 118.284 25.4134 147.813 35.8632 174.704C44.4021 196.71 61.7982 212.681 80.4684 212.681C84.6241 212.681 88.7191 211.862 92.5562 210.239C114.184 200.912 119.356 171.382 108.906 144.492C100.367 122.485 82.9709 106.514 64.3007 106.514Z" fill="#4F614B"/>
<path d="M182.352 152.014C162.332 152.014 152.276 158.399 137.898 181.195L134.198 187.231L128.207 197.666C127.49 198.948 126.778 200.232 126.068 201.518C122.428 208.101 117.408 212.939 108.794 218.839L100.452 224.374C86.1953 233.884 78.7333 241.331 74.5625 254.025C72.6818 259.152 71.5898 266.963 71.6353 273.439C71.6353 299.025 89.805 318.848 114.102 318.848L117.772 318.757C119.577 318.666 121.321 318.499 123.141 318.241L126.903 317.589L128.905 317.164L133.318 316.057L135.775 315.374L144.42 312.796L155.992 309.111L162.893 307.048C170.931 304.773 177.15 303.681 182.352 303.681C187.569 303.681 193.772 304.788 201.811 307.048L208.712 309.111L220.299 312.781L228.929 315.374L233.661 316.648C235.132 317.012 236.497 317.331 237.801 317.589L241.563 318.241C243.383 318.499 245.127 318.666 246.932 318.757L250.602 318.848C274.899 318.848 293.069 299.025 293.069 273.348C293.069 266.871 291.961 259.106 289.929 253.54C286.35 242.559 279.661 234.991 267.482 225.785L263.585 222.903L255.577 217.14C245.84 210.012 240.364 204.612 236.573 197.757L232.478 190.401L228.656 183.849C213.322 158.126 204.116 152.014 182.352 152.014Z" stroke="#4F614B"/>
<path d="M300.348 106.514H299.893C281.405 106.818 264.251 122.682 255.788 144.492C245.323 171.412 250.51 200.912 272.092 210.209C275.975 211.862 280.085 212.681 284.241 212.681C302.911 212.681 320.338 196.71 328.876 174.704C339.281 147.798 334.033 118.284 312.557 109.002C308.702 107.359 304.539 106.513 300.348 106.514Z" stroke="#4F614B"/>
<path d="M137.231 45.8477C135.533 45.8477 134.426 45.878 133.136 46.0752L131.726 46.3178C108.491 49.4422 95.3714 76.4843 99.7545 104.785C103.88 130.948 121.928 152.014 144.041 152.014L146.877 151.938C147.304 151.902 147.729 151.852 148.151 151.787L149.547 151.544C172.797 148.42 185.901 121.378 181.518 93.0767C177.423 66.8838 159.375 45.8477 137.231 45.8477Z" stroke="#4F614B"/>
<path d="M227.416 45.8477C205.287 45.8477 187.269 66.8991 183.19 93.0616C178.791 121.378 191.895 148.42 216.162 151.711C217.724 151.908 219.195 152.014 220.651 152.014C241.733 152.014 259.22 132.829 264.286 108.289L264.908 104.801C269.306 76.4844 256.202 49.4422 231.935 46.1511C230.438 45.9455 228.927 45.8442 227.416 45.8477Z" stroke="#4F614B"/>
<path d="M64.3007 106.514C60.1451 106.514 56.0501 107.333 52.2129 108.956C30.5852 118.284 25.4134 147.813 35.8632 174.704C44.4021 196.71 61.7982 212.681 80.4684 212.681C84.6241 212.681 88.7191 211.862 92.5562 210.239C114.184 200.912 119.356 171.382 108.906 144.492C100.367 122.485 82.9709 106.514 64.3007 106.514Z" stroke="#4F614B"/>
</svg>
