<svg width="100" height="100" viewBox="0 0 100 100" fill="none" xmlns="http://www.w3.org/2000/svg">
<path d="M33.2876 14.5812C32.7424 15.1393 32.4373 15.8886 32.4373 16.6687C32.4373 17.4489 32.7424 18.1981 33.2876 18.7562L63.7438 50L33.2876 81.2375C32.7424 81.7956 32.4373 82.5448 32.4373 83.325C32.4373 84.1051 32.7424 84.8544 33.2876 85.4125C33.5526 85.6846 33.8694 85.9009 34.2193 86.0486C34.5693 86.1963 34.9452 86.2724 35.3251 86.2724C35.7049 86.2724 36.0809 86.1963 36.4309 86.0486C36.7808 85.9009 37.0976 85.6846 37.3626 85.4125L69.7501 52.1812C70.3189 51.5976 70.6373 50.8149 70.6373 50C70.6373 49.185 70.3189 48.4023 69.7501 47.8187L37.3626 14.5875C37.0976 14.3153 36.7808 14.099 36.4309 13.9513C36.0809 13.8036 35.7049 13.7275 35.3251 13.7275C34.9452 13.7275 34.5693 13.8036 34.2193 13.9513C33.8694 14.099 33.5526 14.3153 33.2876 14.5875V14.5812Z" fill="white"/>
</svg>
