<svg width="50" height="50" viewBox="0 0 50 50" fill="none" xmlns="http://www.w3.org/2000/svg">
<path d="M43.75 43.75L31.25 31.25M6.25 20.8333C6.25 22.7484 6.62721 24.6448 7.36009 26.4141C8.09297 28.1835 9.16717 29.7911 10.5214 31.1453C11.8755 32.4995 13.4832 33.5737 15.2525 34.3066C17.0219 35.0395 18.9182 35.4167 20.8333 35.4167C22.7484 35.4167 24.6448 35.0395 26.4141 34.3066C28.1835 33.5737 29.7911 32.4995 31.1453 31.1453C32.4995 29.7911 33.5737 28.1835 34.3066 26.4141C35.0395 24.6448 35.4167 22.7484 35.4167 20.8333C35.4167 18.9182 35.0395 17.0219 34.3066 15.2525C33.5737 13.4832 32.4995 11.8755 31.1453 10.5214C29.7911 9.16717 28.1835 8.09297 26.4141 7.36009C24.6448 6.62721 22.7484 6.25 20.8333 6.25C18.9182 6.25 17.0219 6.62721 15.2525 7.36009C13.4832 8.09297 11.8755 9.16717 10.5214 10.5214C9.16717 11.8755 8.09297 13.4832 7.36009 15.2525C6.62721 17.0219 6.25 18.9182 6.25 20.8333Z" stroke="black" stroke-width="2" stroke-linecap="round" stroke-linejoin="round"/>
</svg>
