<svg width="41" height="41" viewBox="0 0 41 41" fill="none" xmlns="http://www.w3.org/2000/svg">
<path d="M17.6385 7.37488C18.3663 4.37504 22.6337 4.37504 23.3615 7.37488C23.4707 7.82553 23.6847 8.24404 23.9862 8.59633C24.2877 8.94863 24.6681 9.22475 25.0965 9.40223C25.5249 9.57971 25.9892 9.65354 26.4515 9.61769C26.9138 9.58185 27.3611 9.43735 27.757 9.19596C30.393 7.59012 33.4116 10.607 31.8058 13.2447C31.5647 13.6405 31.4204 14.0875 31.3847 14.5495C31.3489 15.0115 31.4227 15.4754 31.5999 15.9035C31.7772 16.3316 32.053 16.7119 32.4049 17.0134C32.7568 17.3149 33.1749 17.529 33.6251 17.6385C36.625 18.3663 36.625 22.6337 33.6251 23.3615C33.1745 23.4707 32.756 23.6847 32.4037 23.9862C32.0514 24.2877 31.7752 24.6681 31.5978 25.0965C31.4203 25.5249 31.3465 25.9892 31.3823 26.4515C31.4182 26.9138 31.5627 27.3611 31.804 27.757C33.4099 30.393 30.393 33.4116 27.7553 31.8058C27.3595 31.5647 26.9125 31.4204 26.4505 31.3847C25.9885 31.3489 25.5246 31.4227 25.0965 31.5999C24.6684 31.7772 24.2881 32.053 23.9866 32.4049C23.6851 32.7568 23.471 33.1749 23.3615 33.6251C22.6337 36.625 18.3663 36.625 17.6385 33.6251C17.5293 33.1745 17.3153 32.756 17.0138 32.4037C16.7123 32.0514 16.3319 31.7752 15.9035 31.5978C15.4751 31.4203 15.0108 31.3465 14.5485 31.3823C14.0862 31.4182 13.6389 31.5627 13.243 31.804C10.607 33.4099 7.58842 30.393 9.19425 27.7553C9.4353 27.3595 9.57957 26.9125 9.61533 26.4505C9.65109 25.9885 9.57733 25.5246 9.40006 25.0965C9.22278 24.6684 8.94699 24.2881 8.59509 23.9866C8.2432 23.6851 7.82513 23.471 7.37488 23.3615C4.37504 22.6337 4.37504 18.3663 7.37488 17.6385C7.82553 17.5293 8.24404 17.3153 8.59633 17.0138C8.94863 16.7123 9.22475 16.3319 9.40223 15.9035C9.57971 15.4751 9.65354 15.0108 9.61769 14.5485C9.58185 14.0862 9.43735 13.6389 9.19596 13.243C7.59012 10.607 10.607 7.58842 13.2447 9.19425C14.953 10.2329 17.167 9.31383 17.6385 7.37488Z" stroke="black" stroke-width="2" stroke-linecap="round" stroke-linejoin="round"/>
<path d="M15.375 20.5C15.375 21.8592 15.915 23.1628 16.8761 24.1239C17.8372 25.085 19.1408 25.625 20.5 25.625C21.8592 25.625 23.1628 25.085 24.1239 24.1239C25.085 23.1628 25.625 21.8592 25.625 20.5C25.625 19.1408 25.085 17.8372 24.1239 16.8761C23.1628 15.915 21.8592 15.375 20.5 15.375C19.1408 15.375 17.8372 15.915 16.8761 16.8761C15.915 17.8372 15.375 19.1408 15.375 20.5Z" stroke="black" stroke-width="2" stroke-linecap="round" stroke-linejoin="round"/>
</svg>
