<svg width="60" height="60" viewBox="0 0 60 60" fill="white" xmlns="http://www.w3.org/2000/svg">
<path d="M17.5 32.4998V12.4998C17.5 11.8368 17.2366 11.2009 16.7678 10.7321C16.2989 10.2632 15.663 9.99983 15 9.99983H10C9.33696 9.99983 8.70107 10.2632 8.23223 10.7321C7.76339 11.2009 7.5 11.8368 7.5 12.4998V29.9998C7.5 30.6629 7.76339 31.2988 8.23223 31.7676C8.70107 32.2364 9.33696 32.4998 10 32.4998H17.5ZM17.5 32.4998C20.1522 32.4998 22.6957 33.5534 24.5711 35.4288C26.4464 37.3041 27.5 39.8477 27.5 42.4998V44.9998C27.5 46.3259 28.0268 47.5977 28.9645 48.5354C29.9021 49.473 31.1739 49.9998 32.5 49.9998C33.8261 49.9998 35.0979 49.473 36.0355 48.5354C36.9732 47.5977 37.5 46.3259 37.5 44.9998V32.4998H45C46.3261 32.4998 47.5979 31.973 48.5355 31.0354C49.4732 30.0977 50 28.8259 50 27.4998L47.5 14.9998C47.1405 13.4661 46.4584 12.1492 45.5566 11.2474C44.6548 10.3456 43.5821 9.90777 42.5 9.99983H25C23.0109 9.99983 21.1032 10.79 19.6967 12.1965C18.2902 13.6031 17.5 15.5107 17.5 17.4998" />
</svg>
